<svg width="256" height="256" viewBox="0 0 256 256" fill="none" xmlns="http://www.w3.org/2000/svg">
<circle cx="128" cy="128" r="128" fill="black"/>
<path d="M94.7912 159.064C93.6059 155.508 92.0151 151.048 90.0187 145.682H60.1672L55.4882 159.064H32L58.202 91.1262H92.6389L119.028 159.064H94.7912ZM84.6848 131.084C82.3141 124.534 79.881 117.983 77.3856 111.433L75.1397 105.35C72.9562 111.027 69.7434 119.605 65.5011 131.084H84.6848Z" fill="white"/>
<path d="M199.165 113.772C199.165 119.2 197.824 123.785 195.141 127.528C192.521 131.271 187.998 133.985 181.572 135.67C182.321 136.668 182.851 137.448 183.163 138.009L198.323 159.064H172.869C170.124 153.949 165.789 146.712 159.862 137.354H146.106V159.064H124.021C124.52 146.961 124.77 135.638 124.77 125.095C124.77 114.552 124.52 103.229 124.021 91.1262H146.106V91.2197H165.29C177.891 91.2197 186.688 93.2473 191.679 97.3023C196.67 101.357 199.165 106.847 199.165 113.772ZM146.106 109.187V119.855H158.739C164.042 119.855 168.035 119.699 170.717 119.387C173.462 119.013 175.365 118.451 176.425 117.702C177.486 116.954 178.016 115.862 178.016 114.427C178.016 113.055 177.517 111.994 176.519 111.246C175.521 110.497 173.649 109.967 170.904 109.655C168.159 109.343 164.104 109.187 158.739 109.187H146.106Z" fill="white"/>
<path d="M215.617 160C212.872 160 210.533 159.033 208.599 157.099C206.665 155.103 205.698 152.732 205.698 149.987C205.698 147.242 206.665 144.903 208.599 142.969C210.533 141.035 212.872 140.068 215.617 140.068C218.3 140.068 220.608 141.066 222.542 143.062C224.538 144.996 225.537 147.305 225.537 149.987C225.537 152.732 224.538 155.103 222.542 157.099C220.608 159.033 218.3 160 215.617 160Z" fill="white"/>
</svg>
